<?xml version="1.0" ?><svg id="Layer_1" style="enable-background:new 0 0 64 64;" version="1.1" viewBox="0 0 64 64" xml:space="preserve" xmlns="http://www.w3.org/2000/svg" xmlns:xlink="http://www.w3.org/1999/xlink"><style type="text/css">
	.st0{fill:#009966;}
	.st1{fill:#B31616;}
	.st2{fill:#EF1D1D;}
	.st3{opacity:0.5;fill:none;stroke:#FFFFFF;stroke-width:2;stroke-linecap:round;stroke-miterlimit:10;}
	.st4{fill:#12AF76;}
</style><path class="st0" d="M27,26.5c0.8,0,1.5-0.7,1.5-1.5v-9c0-2.5,2-4.5,4.5-4.5s4.5,2,4.5,4.5v9c0,0.8,0.7,1.5,1.5,1.5s1.5-0.7,1.5-1.5  v-9c0-4.1-3.4-7.5-7.5-7.5s-7.5,3.4-7.5,7.5v9C25.5,25.8,26.2,26.5,27,26.5z"/><path d="M39,27c-1.1,0-2-0.9-2-2v-9c0-2.2-1.8-4-4-4s-4,1.8-4,4v9c0,1.1-0.9,2-2,2s-2-0.9-2-2v-9c0-4.4,3.6-8,8-8s8,3.6,8,8v9  C41,26.1,40.1,27,39,27z M33,11c2.8,0,5,2.2,5,5v9c0,0.6,0.4,1,1,1s1-0.4,1-1v-9c0-3.9-3.1-7-7-7s-7,3.1-7,7v9c0,0.6,0.4,1,1,1  s1-0.4,1-1v-9C28,13.2,30.2,11,33,11z"/><path class="st1" d="M19.4,55.5h29.1c1.7,0,3-1.3,3-3v-29c0-1.7-1.3-3-3-3H19.4c-1.7,0-3,1.3-3,3v29C16.4,54.2,17.7,55.5,19.4,55.5z  "/><path d="M48.5,56H19.4c-1.9,0-3.5-1.6-3.5-3.5v-29c0-1.9,1.6-3.5,3.5-3.5h29.1c1.9,0,3.5,1.6,3.5,3.5v29C52,54.4,50.4,56,48.5,56z   M19.4,21c-1.4,0-2.5,1.1-2.5,2.5v29c0,1.4,1.1,2.5,2.5,2.5h29.1c1.4,0,2.5-1.1,2.5-2.5v-29c0-1.4-1.1-2.5-2.5-2.5H19.4z"/><path class="st2" d="M15.5,55.5h29c1.7,0,3-1.3,3-3v-29c0-1.7-1.3-3-3-3h-29c-1.7,0-3,1.3-3,3v29C12.5,54.2,13.8,55.5,15.5,55.5z"/><path d="M44.5,56h-29c-1.9,0-3.5-1.6-3.5-3.5v-29c0-1.9,1.6-3.5,3.5-3.5h29c1.9,0,3.5,1.6,3.5,3.5v29C48,54.4,46.4,56,44.5,56z   M15.5,21c-1.4,0-2.5,1.1-2.5,2.5v29c0,1.4,1.1,2.5,2.5,2.5h29c1.4,0,2.5-1.1,2.5-2.5v-29c0-1.4-1.1-2.5-2.5-2.5H15.5z"/><path class="st3" d="M16,38V26c0-1.1,0.9-2,2-2"/><path class="st3" d="M44,50c0,1.1-0.9,2-2,2"/><line class="st3" x1="16" x2="16" y1="44" y2="42"/><path class="st4" d="M24,26.5c0.8,0,1.5-0.7,1.5-1.5v-9c0-2.5,2-4.5,4.5-4.5s4.5,2,4.5,4.5v9c0,0.8,0.7,1.5,1.5,1.5s1.5-0.7,1.5-1.5  v-9c0-4.1-3.4-7.5-7.5-7.5s-7.5,3.4-7.5,7.5v9C22.5,25.8,23.2,26.5,24,26.5z"/><path d="M36,27c-1.1,0-2-0.9-2-2v-9c0-2.2-1.8-4-4-4s-4,1.8-4,4v9c0,1.1-0.9,2-2,2s-2-0.9-2-2v-9c0-4.4,3.6-8,8-8s8,3.6,8,8v9  C38,26.1,37.1,27,36,27z M30,11c2.8,0,5,2.2,5,5v9c0,0.6,0.4,1,1,1s1-0.4,1-1v-9c0-3.9-3.1-7-7-7s-7,3.1-7,7v9c0,0.6,0.4,1,1,1  s1-0.4,1-1v-9C25,13.2,27.2,11,30,11z"/></svg>